<svg xmlns="http://www.w3.org/2000/svg" xmlns:xlink="http://www.w3.org/1999/xlink" viewBox="0 0 204.5 308"><defs><style>.cls-1{fill:url(#Degradado_sin_nombre_345);}.cls-2{fill:url(#Degradado_sin_nombre_353);}.cls-3{fill:url(#Degradado_sin_nombre_345-2);}.cls-4{fill:url(#Degradado_sin_nombre_353-2);}.cls-5{fill:url(#Degradado_sin_nombre_345-3);}.cls-6{fill:url(#Degradado_sin_nombre_353-3);}.cls-7{fill:url(#Degradado_sin_nombre_345-4);}.cls-8{fill:url(#Degradado_sin_nombre_353-4);}.cls-9{fill:url(#Degradado_sin_nombre_345-5);}.cls-10{fill:url(#Degradado_sin_nombre_353-5);}.cls-11{fill:url(#Degradado_sin_nombre_345-6);}.cls-12{fill:url(#Degradado_sin_nombre_353-6);}.cls-13{fill:url(#Degradado_sin_nombre_345-7);}.cls-14{fill:url(#Degradado_sin_nombre_353-7);}.cls-15{fill:url(#Degradado_sin_nombre_345-8);}.cls-16{fill:url(#Degradado_sin_nombre_353-8);}.cls-17{fill:url(#Degradado_sin_nombre_345-9);}.cls-18{fill:url(#Degradado_sin_nombre_353-9);}.cls-19{fill:url(#Degradado_sin_nombre_345-10);}.cls-20{fill:url(#Degradado_sin_nombre_353-10);}.cls-21{fill:url(#Degradado_sin_nombre_345-11);}.cls-22{fill:url(#Degradado_sin_nombre_353-11);}.cls-23{fill:url(#Degradado_sin_nombre_345-12);}.cls-24{fill:url(#Degradado_sin_nombre_353-12);}.cls-25{fill:url(#Degradado_sin_nombre_345-13);}.cls-26{fill:url(#Degradado_sin_nombre_353-13);}.cls-27{fill:url(#Degradado_sin_nombre_351);}.cls-28{fill:url(#Degradado_sin_nombre_345-14);}.cls-29{fill:url(#Degradado_sin_nombre_353-14);}.cls-30{fill:url(#Degradado_sin_nombre_351-2);}.cls-31{fill:url(#Degradado_sin_nombre_345-15);}.cls-32{fill:url(#Degradado_sin_nombre_353-15);}.cls-33{fill:url(#Degradado_sin_nombre_345-16);}.cls-34{fill:url(#Degradado_sin_nombre_353-16);}.cls-35{fill:url(#Degradado_sin_nombre_345-17);}.cls-36{fill:url(#Degradado_sin_nombre_353-17);}.cls-37{fill:url(#Degradado_sin_nombre_345-18);}.cls-38{fill:url(#Degradado_sin_nombre_353-18);}.cls-39{fill:url(#Degradado_sin_nombre_345-19);}.cls-40{fill:url(#Degradado_sin_nombre_353-19);}.cls-41{fill:url(#Degradado_sin_nombre_345-20);}.cls-42{fill:url(#Degradado_sin_nombre_353-20);}.cls-43{fill:url(#Degradado_sin_nombre_345-21);}.cls-44{fill:url(#Degradado_sin_nombre_353-21);}.cls-45{fill:url(#Degradado_sin_nombre_345-22);}.cls-46{fill:url(#Degradado_sin_nombre_353-22);}.cls-47{fill:url(#Degradado_sin_nombre_345-23);}.cls-48{fill:url(#Degradado_sin_nombre_353-23);}.cls-49{fill:url(#Degradado_sin_nombre_345-24);}.cls-50{fill:url(#Degradado_sin_nombre_353-24);}.cls-51{fill:url(#Degradado_sin_nombre_345-25);}.cls-52{fill:url(#Degradado_sin_nombre_353-25);}.cls-53{fill:url(#Degradado_sin_nombre_345-26);}.cls-54{fill:url(#Degradado_sin_nombre_353-26);}.cls-55{fill:url(#Degradado_sin_nombre_351-3);}.cls-56{fill:url(#Degradado_sin_nombre_353-27);}.cls-57{fill:url(#Degradado_sin_nombre_351-4);}.cls-58{fill:url(#Degradado_sin_nombre_353-28);}.cls-59{fill:url(#Degradado_sin_nombre_351-5);}.cls-60{fill:url(#Degradado_sin_nombre_353-29);}.cls-61{fill:url(#Degradado_sin_nombre_353-30);}.cls-62{fill:url(#Degradado_sin_nombre_354);}.cls-63{fill:url(#Degradado_sin_nombre_354-2);}.cls-64,.cls-65{fill:none;stroke:#4274bf;}.cls-64{stroke-width:2px;}.cls-66{fill:url(#Degradado_sin_nombre_355);}</style><linearGradient id="Degradado_sin_nombre_345" x1="-31.83" y1="1028.32" x2="-32.83" y2="1028.32" gradientTransform="matrix(1.5, 0, 0, -8.4, 101.15, 8749.14)" gradientUnits="userSpaceOnUse"><stop offset="0" stop-color="#a1a1a1"/><stop offset="0.15" stop-color="#dcdcdc"/><stop offset="0.25" stop-color="#ececec"/><stop offset="0.52" stop-color="#bfbfbf"/><stop offset="0.69" stop-color="#aaa"/><stop offset="0.8" stop-color="#a0a0a0"/><stop offset="0.92" stop-color="#979797"/><stop offset="1" stop-color="#aeaeae"/></linearGradient><linearGradient id="Degradado_sin_nombre_353" x1="16.5" y1="1028.32" x2="15.5" y2="1028.32" gradientTransform="matrix(4, 0, 0, -8.4, -11.34, 8746.29)" gradientUnits="userSpaceOnUse"><stop offset="0" stop-color="#bdbdbd"/><stop offset="0.15" stop-color="#fff"/><stop offset="0.25" stop-color="#fff"/><stop offset="0.52" stop-color="#dfdfdf"/><stop offset="0.69" stop-color="#c7c7c7"/><stop offset="0.8" stop-color="#bcbcbc"/><stop offset="0.92" stop-color="#b1b1b1"/><stop offset="1" stop-color="#cbcbcb"/></linearGradient><linearGradient id="Degradado_sin_nombre_345-2" x1="-31.83" y1="1028.32" x2="-32.83" y2="1028.32" gradientTransform="matrix(1.5, 0, 0, -8.4, 110.11, 8749.14)" xlink:href="#Degradado_sin_nombre_345"/><linearGradient id="Degradado_sin_nombre_353-2" x1="16.5" y1="1028.32" x2="15.5" y2="1028.32" gradientTransform="matrix(4, 0, 0, -8.4, -2.38, 8746.29)" xlink:href="#Degradado_sin_nombre_353"/><linearGradient id="Degradado_sin_nombre_345-3" x1="-31.83" y1="1028.32" x2="-32.83" y2="1028.32" gradientTransform="matrix(1.5, 0, 0, -8.4, 118.01, 8749.14)" xlink:href="#Degradado_sin_nombre_345"/><linearGradient id="Degradado_sin_nombre_353-3" x1="16.5" y1="1028.32" x2="15.5" y2="1028.32" gradientTransform="matrix(4, 0, 0, -8.4, 5.52, 8746.29)" xlink:href="#Degradado_sin_nombre_353"/><linearGradient id="Degradado_sin_nombre_345-4" x1="-31.83" y1="1028.32" x2="-32.83" y2="1028.32" gradientTransform="matrix(1.5, 0, 0, -8.4, 125.9, 8749.14)" xlink:href="#Degradado_sin_nombre_345"/><linearGradient id="Degradado_sin_nombre_353-4" x1="16.5" y1="1028.32" x2="15.5" y2="1028.32" gradientTransform="matrix(4, 0, 0, -8.4, 13.41, 8746.29)" xlink:href="#Degradado_sin_nombre_353"/><linearGradient id="Degradado_sin_nombre_345-5" x1="-31.83" y1="1028.32" x2="-32.83" y2="1028.32" gradientTransform="matrix(1.5, 0, 0, -8.4, 133.8, 8747.51)" xlink:href="#Degradado_sin_nombre_345"/><linearGradient id="Degradado_sin_nombre_353-5" x1="16.5" y1="1028.32" x2="15.5" y2="1028.32" gradientTransform="matrix(4, 0, 0, -8.4, 21.31, 8744.66)" xlink:href="#Degradado_sin_nombre_353"/><linearGradient id="Degradado_sin_nombre_345-6" x1="-31.83" y1="1028.32" x2="-32.83" y2="1028.32" gradientTransform="matrix(1.5, 0, 0, -8.4, 142.76, 8746.69)" xlink:href="#Degradado_sin_nombre_345"/><linearGradient id="Degradado_sin_nombre_353-6" x1="16.5" y1="1028.32" x2="15.5" y2="1028.32" gradientTransform="matrix(4, 0, 0, -8.4, 30.27, 8743.84)" xlink:href="#Degradado_sin_nombre_353"/><linearGradient id="Degradado_sin_nombre_345-7" x1="-31.83" y1="1028.32" x2="-32.83" y2="1028.32" gradientTransform="matrix(1.5, 0, 0, -8.4, 150.75, 8745.88)" xlink:href="#Degradado_sin_nombre_345"/><linearGradient id="Degradado_sin_nombre_353-7" x1="16.5" y1="1028.32" x2="15.5" y2="1028.32" gradientTransform="matrix(4, 0, 0, -8.4, 38.26, 8743.03)" xlink:href="#Degradado_sin_nombre_353"/><linearGradient id="Degradado_sin_nombre_345-8" x1="-31.83" y1="1028.32" x2="-32.83" y2="1028.32" gradientTransform="matrix(1.5, 0, 0, -8.4, 158.56, 8746.69)" xlink:href="#Degradado_sin_nombre_345"/><linearGradient id="Degradado_sin_nombre_353-8" x1="16.5" y1="1028.32" x2="15.5" y2="1028.32" gradientTransform="matrix(4, 0, 0, -8.4, 46.07, 8743.84)" xlink:href="#Degradado_sin_nombre_353"/><linearGradient id="Degradado_sin_nombre_345-9" x1="-31.83" y1="1028.32" x2="-32.83" y2="1028.32" gradientTransform="matrix(1.5, 0, 0, -8.4, 166.46, 8747.51)" xlink:href="#Degradado_sin_nombre_345"/><linearGradient id="Degradado_sin_nombre_353-9" x1="16.5" y1="1028.32" x2="15.5" y2="1028.32" gradientTransform="matrix(4, 0, 0, -8.4, 53.97, 8744.66)" xlink:href="#Degradado_sin_nombre_353"/><linearGradient id="Degradado_sin_nombre_345-10" x1="-31.83" y1="1028.32" x2="-32.83" y2="1028.32" gradientTransform="matrix(1.5, 0, 0, -8.4, 175.42, 8749.14)" xlink:href="#Degradado_sin_nombre_345"/><linearGradient id="Degradado_sin_nombre_353-10" x1="16.5" y1="1028.32" x2="15.5" y2="1028.32" gradientTransform="matrix(4, 0, 0, -8.4, 62.93, 8746.29)" xlink:href="#Degradado_sin_nombre_353"/><linearGradient id="Degradado_sin_nombre_345-11" x1="-31.83" y1="1028.32" x2="-32.83" y2="1028.32" gradientTransform="matrix(1.5, 0, 0, -8.4, 183.32, 8749.14)" xlink:href="#Degradado_sin_nombre_345"/><linearGradient id="Degradado_sin_nombre_353-11" x1="16.5" y1="1028.32" x2="15.5" y2="1028.32" gradientTransform="matrix(4, 0, 0, -8.4, 70.83, 8746.29)" xlink:href="#Degradado_sin_nombre_353"/><linearGradient id="Degradado_sin_nombre_345-12" x1="-31.83" y1="1028.32" x2="-32.83" y2="1028.32" gradientTransform="matrix(1.5, 0, 0, -8.4, 191.21, 8749.14)" xlink:href="#Degradado_sin_nombre_345"/><linearGradient id="Degradado_sin_nombre_353-12" x1="16.5" y1="1028.32" x2="15.5" y2="1028.32" gradientTransform="matrix(4, 0, 0, -8.4, 78.72, 8746.29)" xlink:href="#Degradado_sin_nombre_353"/><linearGradient id="Degradado_sin_nombre_345-13" x1="-31.83" y1="1028.32" x2="-32.83" y2="1028.32" gradientTransform="matrix(1.5, 0, 0, -8.4, 199.11, 8749.14)" xlink:href="#Degradado_sin_nombre_345"/><linearGradient id="Degradado_sin_nombre_353-13" x1="16.5" y1="1028.32" x2="15.5" y2="1028.32" gradientTransform="matrix(4, 0, 0, -8.4, 86.62, 8746.29)" xlink:href="#Degradado_sin_nombre_353"/><linearGradient id="Degradado_sin_nombre_351" x1="500.56" y1="737.02" x2="500.56" y2="736.02" gradientTransform="matrix(0, -5.4, -109.2, 0, 80530.49, 2805.6)" gradientUnits="userSpaceOnUse"><stop offset="0" stop-color="#979898"/><stop offset="0.15" stop-color="#d0d1d1"/><stop offset="0.25" stop-color="#e5e6e6"/><stop offset="0.52" stop-color="#b3b4b4"/><stop offset="0.69" stop-color="#9fa0a0"/><stop offset="0.8" stop-color="#969797"/><stop offset="0.92" stop-color="#8e8e8e"/><stop offset="1" stop-color="#a3a4a4"/></linearGradient><linearGradient id="Degradado_sin_nombre_345-14" x1="121.83" y1="442.6" x2="122.83" y2="442.6" gradientTransform="matrix(-1.5, 0, 0, 8.4, 236.17, -3592.71)" xlink:href="#Degradado_sin_nombre_345"/><linearGradient id="Degradado_sin_nombre_353-14" x1="73.5" y1="442.6" x2="74.5" y2="442.6" gradientTransform="matrix(-4, 0, 0, 8.4, 348.66, -3589.86)" xlink:href="#Degradado_sin_nombre_353"/><linearGradient id="Degradado_sin_nombre_351-2" x1="500.56" y1="737.02" x2="500.56" y2="736.02" gradientTransform="matrix(0, -5.4, -109.2, 0, 80530.49, 2821.4)" xlink:href="#Degradado_sin_nombre_351"/><linearGradient id="Degradado_sin_nombre_345-15" x1="121.83" y1="442.6" x2="122.83" y2="442.6" gradientTransform="matrix(-1.5, 0, 0, 8.4, 245.07, -3592.71)" xlink:href="#Degradado_sin_nombre_345"/><linearGradient id="Degradado_sin_nombre_353-15" x1="73.5" y1="442.6" x2="74.5" y2="442.6" gradientTransform="matrix(-4, 0, 0, 8.4, 357.56, -3589.86)" xlink:href="#Degradado_sin_nombre_353"/><linearGradient id="Degradado_sin_nombre_345-16" x1="121.83" y1="442.6" x2="122.83" y2="442.6" gradientTransform="matrix(-1.5, 0, 0, 8.4, 252.97, -3592.71)" xlink:href="#Degradado_sin_nombre_345"/><linearGradient id="Degradado_sin_nombre_353-16" x1="73.5" y1="442.6" x2="74.5" y2="442.6" gradientTransform="matrix(-4, 0, 0, 8.4, 365.46, -3589.86)" xlink:href="#Degradado_sin_nombre_353"/><linearGradient id="Degradado_sin_nombre_345-17" x1="121.83" y1="442.6" x2="122.83" y2="442.6" gradientTransform="matrix(-1.5, 0, 0, 8.4, 260.87, -3592.71)" xlink:href="#Degradado_sin_nombre_345"/><linearGradient id="Degradado_sin_nombre_353-17" x1="73.5" y1="442.6" x2="74.5" y2="442.6" gradientTransform="matrix(-4, 0, 0, 8.4, 373.36, -3589.86)" xlink:href="#Degradado_sin_nombre_353"/><linearGradient id="Degradado_sin_nombre_345-18" x1="121.83" y1="442.6" x2="122.83" y2="442.6" gradientTransform="matrix(-1.5, 0, 0, 8.4, 268.77, -3591.01)" xlink:href="#Degradado_sin_nombre_345"/><linearGradient id="Degradado_sin_nombre_353-18" x1="73.5" y1="442.6" x2="74.5" y2="442.6" gradientTransform="matrix(-4, 0, 0, 8.4, 381.26, -3588.16)" xlink:href="#Degradado_sin_nombre_353"/><linearGradient id="Degradado_sin_nombre_345-19" x1="121.83" y1="442.6" x2="122.83" y2="442.6" gradientTransform="matrix(-1.5, 0, 0, 8.4, 277.77, -3590.21)" xlink:href="#Degradado_sin_nombre_345"/><linearGradient id="Degradado_sin_nombre_353-19" x1="73.5" y1="442.6" x2="74.5" y2="442.6" gradientTransform="matrix(-4, 0, 0, 8.4, 390.26, -3587.36)" xlink:href="#Degradado_sin_nombre_353"/><linearGradient id="Degradado_sin_nombre_345-20" x1="121.83" y1="442.6" x2="122.83" y2="442.6" gradientTransform="matrix(-1.5, 0, 0, 8.4, 285.77, -3589.41)" xlink:href="#Degradado_sin_nombre_345"/><linearGradient id="Degradado_sin_nombre_353-20" x1="73.5" y1="442.6" x2="74.5" y2="442.6" gradientTransform="matrix(-4, 0, 0, 8.4, 398.26, -3586.56)" xlink:href="#Degradado_sin_nombre_353"/><linearGradient id="Degradado_sin_nombre_345-21" x1="121.83" y1="442.6" x2="122.83" y2="442.6" gradientTransform="matrix(-1.5, 0, 0, 8.4, 293.57, -3590.21)" xlink:href="#Degradado_sin_nombre_345"/><linearGradient id="Degradado_sin_nombre_353-21" x1="73.5" y1="442.6" x2="74.5" y2="442.6" gradientTransform="matrix(-4, 0, 0, 8.4, 406.06, -3587.36)" xlink:href="#Degradado_sin_nombre_353"/><linearGradient id="Degradado_sin_nombre_345-22" x1="121.83" y1="442.6" x2="122.83" y2="442.6" gradientTransform="matrix(-1.5, 0, 0, 8.4, 301.47, -3591.01)" xlink:href="#Degradado_sin_nombre_345"/><linearGradient id="Degradado_sin_nombre_353-22" x1="73.5" y1="442.6" x2="74.5" y2="442.6" gradientTransform="matrix(-4, 0, 0, 8.4, 413.96, -3588.16)" xlink:href="#Degradado_sin_nombre_353"/><linearGradient id="Degradado_sin_nombre_345-23" x1="121.83" y1="442.6" x2="122.83" y2="442.6" gradientTransform="matrix(-1.5, 0, 0, 8.4, 310.37, -3592.71)" xlink:href="#Degradado_sin_nombre_345"/><linearGradient id="Degradado_sin_nombre_353-23" x1="73.5" y1="442.6" x2="74.5" y2="442.6" gradientTransform="matrix(-4, 0, 0, 8.4, 422.86, -3589.86)" xlink:href="#Degradado_sin_nombre_353"/><linearGradient id="Degradado_sin_nombre_345-24" x1="121.83" y1="442.6" x2="122.83" y2="442.6" gradientTransform="matrix(-1.5, 0, 0, 8.4, 318.27, -3592.71)" xlink:href="#Degradado_sin_nombre_345"/><linearGradient id="Degradado_sin_nombre_353-24" x1="73.5" y1="442.6" x2="74.5" y2="442.6" gradientTransform="matrix(-4, 0, 0, 8.4, 430.76, -3589.86)" xlink:href="#Degradado_sin_nombre_353"/><linearGradient id="Degradado_sin_nombre_345-25" x1="121.83" y1="442.6" x2="122.83" y2="442.6" gradientTransform="matrix(-1.5, 0, 0, 8.4, 326.17, -3592.71)" xlink:href="#Degradado_sin_nombre_345"/><linearGradient id="Degradado_sin_nombre_353-25" x1="73.5" y1="442.6" x2="74.5" y2="442.6" gradientTransform="matrix(-4, 0, 0, 8.4, 438.66, -3589.86)" xlink:href="#Degradado_sin_nombre_353"/><linearGradient id="Degradado_sin_nombre_345-26" x1="121.83" y1="442.6" x2="122.83" y2="442.6" gradientTransform="matrix(-1.5, 0, 0, 8.4, 334.07, -3592.71)" xlink:href="#Degradado_sin_nombre_345"/><linearGradient id="Degradado_sin_nombre_353-26" x1="73.5" y1="442.6" x2="74.5" y2="442.6" gradientTransform="matrix(-4, 0, 0, 8.4, 446.56, -3589.86)" xlink:href="#Degradado_sin_nombre_353"/><linearGradient id="Degradado_sin_nombre_351-3" x1="500.56" y1="737.02" x2="500.56" y2="736.02" gradientTransform="matrix(0, -5.4, -109.2, 0, 80530.49, 2836.4)" xlink:href="#Degradado_sin_nombre_351"/><linearGradient id="Degradado_sin_nombre_353-27" x1="-69.57" y1="3137.04" x2="3.43" y2="3198.04" gradientTransform="matrix(1, 0, 0, -1, 135.67, 3238.82)" xlink:href="#Degradado_sin_nombre_353"/><linearGradient id="Degradado_sin_nombre_351-4" x1="43.98" y1="1156.37" x2="42.98" y2="1156.37" gradientTransform="matrix(76.2, 0, 0, -5.84, -3210.73, 6810.09)" xlink:href="#Degradado_sin_nombre_351"/><linearGradient id="Degradado_sin_nombre_353-28" x1="-69.57" y1="3137.04" x2="3.43" y2="3198.04" gradientTransform="matrix(1, 0, 0, -1, 134.86, 3328.44)" xlink:href="#Degradado_sin_nombre_353"/><linearGradient id="Degradado_sin_nombre_351-5" x1="43.98" y1="1156.37" x2="42.98" y2="1156.37" gradientTransform="matrix(76.2, 0, 0, -5.84, -3211.54, 6912.32)" xlink:href="#Degradado_sin_nombre_351"/><linearGradient id="Degradado_sin_nombre_353-29" x1="44.93" y1="751.52" x2="43.93" y2="751.52" gradientTransform="matrix(204.5, 0, 0, -153.2, -8984.25, 115363.86)" xlink:href="#Degradado_sin_nombre_353"/><linearGradient id="Degradado_sin_nombre_353-30" x1="44.93" y1="784.17" x2="43.93" y2="784.17" gradientTransform="matrix(204.5, 0, 0, -50.5, -8984.25, 39625.98)" xlink:href="#Degradado_sin_nombre_353"/><linearGradient id="Degradado_sin_nombre_354" x1="-47.17" y1="3220.28" x2="108.67" y2="3064.43" gradientTransform="matrix(1, 0, 0, -1, 71.5, 3244.98)" gradientUnits="userSpaceOnUse"><stop offset="0.14" stop-color="#cfebf6" stop-opacity="0.5"/><stop offset="0.18" stop-color="#cfebf6" stop-opacity="0.6"/><stop offset="0.24" stop-color="#cfebf6" stop-opacity="0.5"/><stop offset="0.54" stop-color="#dcf0f8" stop-opacity="0.5"/><stop offset="0.6" stop-color="#cfebf6" stop-opacity="0.6"/><stop offset="0.64" stop-color="#daeff8" stop-opacity="0.5"/><stop offset="0.86" stop-color="#d4edf7" stop-opacity="0.5"/><stop offset="0.91" stop-color="#cfebf6" stop-opacity="0.6"/><stop offset="0.94" stop-color="#d7eef7" stop-opacity="0.5"/></linearGradient><linearGradient id="Degradado_sin_nombre_354-2" x1="-69.2" y1="3193.68" x2="-69.2" y2="3193.68" xlink:href="#Degradado_sin_nombre_354"/><linearGradient id="Degradado_sin_nombre_355" x1="-1184.5" y1="731.85" x2="-1185.5" y2="731.85" gradientTransform="matrix(0, 2, 32.1, 0, -23390.01, 2519.1)" gradientUnits="userSpaceOnUse"><stop offset="0" stop-color="#626262"/><stop offset="0.15" stop-color="#919191"/><stop offset="0.25" stop-color="#c9c9c9"/><stop offset="0.52" stop-color="#757575"/><stop offset="0.69" stop-color="#676767"/><stop offset="0.8" stop-color="#616161"/><stop offset="0.92" stop-color="#5b5b5b"/><stop offset="1" stop-color="#6a6a6a"/></linearGradient></defs><title>Fette</title><g id="Capa_2" data-name="Capa 2"><g id="Capa_1-2" data-name="Capa 1"><g id="group538"><g id="group539"><g id="group540"><g id="group541"><path id="shape542" class="cls-1" d="M51.9,107.08h1.5v8.4H51.9Z"/><path id="shape543" class="cls-2" d="M50.66,104.23h4v8.4h-4Z"/></g><g id="group544"><path id="shape545" class="cls-3" d="M60.86,107.08h1.5v8.4h-1.5Z"/><path id="shape546" class="cls-4" d="M59.62,104.23h4v8.4h-4Z"/></g><g id="group547"><path id="shape548" class="cls-5" d="M68.76,107.08h1.5v8.4h-1.5Z"/><path id="shape549" class="cls-6" d="M67.52,104.23h4v8.4h-4Z"/></g><g id="group550"><path id="shape551" class="cls-7" d="M76.65,107.08h1.5v8.4h-1.5Z"/><path id="shape552" class="cls-8" d="M75.41,104.23h4v8.4h-4Z"/></g><g id="group553"><path id="shape554" class="cls-9" d="M84.55,105.45h1.5v8.4h-1.5Z"/><path id="shape555" class="cls-10" d="M83.31,102.6h4V111h-4Z"/></g><g id="group556"><path id="shape557" class="cls-11" d="M93.51,104.63H95V113h-1.5Z"/><path id="shape558" class="cls-12" d="M92.27,101.78h4v8.4h-4Z"/></g><g id="group559"><path id="shape560" class="cls-13" d="M101.5,103.82H103v8.4h-1.5Z"/><path id="shape561" class="cls-14" d="M100.26,101h4v8.4h-4Z"/></g><g id="group562"><path id="shape563" class="cls-15" d="M109.31,104.63h1.5V113h-1.5Z"/><path id="shape564" class="cls-16" d="M108.07,101.78h4v8.4h-4Z"/></g><g id="group565"><path id="shape566" class="cls-17" d="M117.21,105.45h1.5v8.4h-1.5Z"/><path id="shape567" class="cls-18" d="M116,102.6h4V111h-4Z"/></g><g id="group568"><path id="shape569" class="cls-19" d="M126.17,107.08h1.5v8.4h-1.5Z"/><path id="shape570" class="cls-20" d="M124.93,104.23h4v8.4h-4Z"/></g><g id="group571"><path id="shape572" class="cls-21" d="M134.07,107.08h1.5v8.4h-1.5Z"/><path id="shape573" class="cls-22" d="M132.83,104.23h4v8.4h-4Z"/></g><g id="group574"><path id="shape575" class="cls-23" d="M142,107.08h1.5v8.4H142Z"/><path id="shape576" class="cls-24" d="M140.72,104.23h4v8.4h-4Z"/></g><g id="group577"><path id="shape578" class="cls-25" d="M149.86,107.08h1.5v8.4h-1.5Z"/><path id="shape579" class="cls-26" d="M148.62,104.23h4v8.4h-4Z"/></g><path id="shape580" class="cls-27" d="M156.86,103.3v-1.4a2,2,0,0,0-2-2H49.66a2,2,0,0,0-2,2v1.4a2,2,0,0,0,2,2h105.2A2,2,0,0,0,156.86,103.3Z"/><g id="group581"><path id="shape582" class="cls-28" d="M53.42,129.35h-1.5V121h1.5Z"/><path id="shape583" class="cls-29" d="M54.66,132.2h-4v-8.4h4Z"/></g><path id="shape584" class="cls-30" d="M156.86,119.1v-1.4a2,2,0,0,0-2-2H49.66a2,2,0,0,0-2,2v1.4a2,2,0,0,0,2,2h105.2A2,2,0,0,0,156.86,119.1Z"/><g id="group585"><path id="shape586" class="cls-31" d="M62.32,129.35h-1.5V121h1.5Z"/><path id="shape587" class="cls-32" d="M63.56,132.2h-4v-8.4h4Z"/></g><g id="group588"><path id="shape589" class="cls-33" d="M70.22,129.35h-1.5V121h1.5Z"/><path id="shape590" class="cls-34" d="M71.46,132.2h-4v-8.4h4Z"/></g><g id="group591"><path id="shape592" class="cls-35" d="M78.12,129.35h-1.5V121h1.5Z"/><path id="shape593" class="cls-36" d="M79.36,132.2h-4v-8.4h4Z"/></g><g id="group594"><path id="shape595" class="cls-37" d="M86,131.05h-1.5v-8.4H86Z"/><path id="shape596" class="cls-38" d="M87.26,133.9h-4v-8.4h4Z"/></g><g id="group597"><path id="shape598" class="cls-39" d="M95,131.85h-1.5v-8.4H95Z"/><path id="shape599" class="cls-40" d="M96.26,134.7h-4v-8.4h4Z"/></g><g id="group600"><path id="shape601" class="cls-41" d="M103,132.65h-1.5v-8.4H103Z"/><path id="shape602" class="cls-42" d="M104.26,135.5h-4v-8.4h4Z"/></g><g id="group603"><path id="shape604" class="cls-43" d="M110.82,131.85h-1.5v-8.4h1.5Z"/><path id="shape605" class="cls-44" d="M112.06,134.7h-4v-8.4h4Z"/></g><g id="group606"><path id="shape607" class="cls-45" d="M118.72,131.05h-1.5v-8.4h1.5Z"/><path id="shape608" class="cls-46" d="M120,133.9h-4v-8.4h4Z"/></g><g id="group609"><path id="shape610" class="cls-47" d="M127.62,129.35h-1.5V121h1.5Z"/><path id="shape611" class="cls-48" d="M128.86,132.2h-4v-8.4h4Z"/></g><g id="group612"><path id="shape613" class="cls-49" d="M135.52,129.35H134V121h1.5Z"/><path id="shape614" class="cls-50" d="M136.76,132.2h-4v-8.4h4Z"/></g><g id="group615"><path id="shape616" class="cls-51" d="M143.42,129.35h-1.5V121h1.5Z"/><path id="shape617" class="cls-52" d="M144.66,132.2h-4v-8.4h4Z"/></g><g id="group618"><path id="shape619" class="cls-53" d="M151.32,129.35h-1.5V121h1.5Z"/><path id="shape620" class="cls-54" d="M152.56,132.2h-4v-8.4h4Z"/></g><path id="shape621" class="cls-55" d="M156.86,134.1v-1.4a2,2,0,0,0-2-2H49.66a2,2,0,0,0-2,2v1.4a2,2,0,0,0,2,2h105.2A2,2,0,0,0,156.86,134.1Z"/></g><path id="shape622" class="cls-56" d="M64.17,42.86h76.2v57.4H64.17Z"/><path id="shape623" class="cls-57" d="M66.27,48.86h71a12,12,0,0,1,1.9,0c.7.2,1.2.4,1.2.7V53c0,.5-.2,1.3-.8,1.5a5.07,5.07,0,0,1-1.3.2h-71a13.4,13.4,0,0,1-2-.1c-.7-.1-1.1-.3-1.1-.6v-3.4c0-.6.1-1.4.8-1.6A4.89,4.89,0,0,1,66.27,48.86Z"/><path id="shape624" class="cls-58" d="M63.36,132.48h76.2v57.4H63.36Z"/><path id="shape625" class="cls-59" d="M65.46,151.09h71a12,12,0,0,1,1.9,0c.7.2,1.2.4,1.2.7v3.4c0,.5-.2,1.3-.8,1.5a5.07,5.07,0,0,1-1.3.2h-71a13.4,13.4,0,0,1-2-.1c-.7-.1-1.1-.3-1.1-.6v-3.4c0-.6.1-1.4.8-1.6A4.89,4.89,0,0,1,65.46,151.09Z"/><path id="shape626" class="cls-60" d="M0,154.8H204.5V308H0Z"/><path id="shape627" class="cls-61" d="M0,0H204.5V50.5H0Z"/><path id="shape628" class="cls-62" d="M0,49H204.5v107.2H0Z"/><g id="shape629"><path class="cls-63" d="M2.3,51.3"/><path class="cls-64" d="M2.3,51.3V154"/></g><g id="shape630"><path class="cls-64" d="M6.3,51.3"/><path class="cls-65" d="M6.3,51.3V154"/></g><g id="shape631"><path class="cls-65" d="M10.4,51.3"/><path class="cls-65" d="M10.4,51.3V154"/></g><g id="shape632"><path class="cls-65" d="M202.5,154"/><path class="cls-64" d="M202.5,154V51.3"/></g><g id="shape633"><path class="cls-64" d="M198.4,154"/><path class="cls-65" d="M198.4,154V51.3"/></g><g id="shape634"><path class="cls-65" d="M194.3,154"/><path class="cls-65" d="M194.3,154V51.3"/></g></g><path id="shape635" class="cls-66" d="M118.3,148.6v1a.47.47,0,0,1-.5.5H86.7a.47.47,0,0,1-.5-.5v-1a.47.47,0,0,1,.5-.5h31.1A.47.47,0,0,1,118.3,148.6Z"/></g></g></g></svg>