<svg xmlns="http://www.w3.org/2000/svg" xmlns:xlink="http://www.w3.org/1999/xlink" viewBox="0 0 246.24 286.02"><defs><style>.cls-1{fill:#6f6f6f;}.cls-2{fill:url(#Degradado_sin_nombre_261);}.cls-3{fill:url(#Degradado_sin_nombre_261-2);}.cls-4{fill:url(#Degradado_sin_nombre_261-3);}.cls-5{fill:url(#Degradado_sin_nombre_261-4);}.cls-6{fill:url(#Degradado_sin_nombre_275);}.cls-7{fill:url(#Degradado_sin_nombre_257);}.cls-8{fill:url(#Degradado_sin_nombre_265);}.cls-9{fill:url(#Degradado_sin_nombre_265-2);}.cls-10{fill:url(#Degradado_sin_nombre_261-5);}.cls-11{fill:url(#Degradado_sin_nombre_265-3);}.cls-12{fill:#fff;}.cls-13{fill:url(#Degradado_sin_nombre_265-4);}.cls-14{fill:url(#Degradado_sin_nombre_264);}.cls-15{fill:url(#Degradado_sin_nombre_265-5);}.cls-16{fill:url(#Degradado_sin_nombre_275-2);}.cls-17{fill:url(#Degradado_sin_nombre_252);}.cls-18{fill:url(#Degradado_sin_nombre_252-2);}.cls-19{fill:url(#Degradado_sin_nombre_255);}.cls-20{fill:url(#Degradado_sin_nombre_254);}.cls-21{fill:url(#Degradado_sin_nombre_255-2);}.cls-22{fill:url(#Degradado_sin_nombre_256);}.cls-23{fill:url(#Degradado_sin_nombre_257-2);}.cls-24{fill:url(#Degradado_sin_nombre_270);}.cls-25{fill:url(#Degradado_sin_nombre_270-2);}.cls-26{fill:url(#Degradado_sin_nombre_265-6);}.cls-27{fill:url(#Degradado_sin_nombre_261-6);}.cls-28{fill:url(#Degradado_sin_nombre_265-7);}.cls-29{fill:url(#Degradado_sin_nombre_265-8);}.cls-30{fill:url(#Degradado_sin_nombre_264-2);}.cls-31{fill:url(#Degradado_sin_nombre_265-9);}.cls-32,.cls-33{stroke:#b5b5a3;stroke-width:7px;}.cls-32{fill:url(#Degradado_sin_nombre_267);}.cls-33{fill:url(#Degradado_sin_nombre_267-2);}.cls-34{fill:none;stroke:#595959;}.cls-35{fill:#a1a18b;}.cls-36{fill:#2e8d5d;}.cls-37{fill:url(#Degradado_sin_nombre_268);}.cls-38{fill:url(#Degradado_sin_nombre_270-3);}.cls-39{fill:url(#Degradado_sin_nombre_270-4);}.cls-40{stroke:#000;fill:url(#Degradado_sin_nombre_271);}.cls-41{fill:#303030;}.cls-42{fill:#42c181;}.cls-43{fill:url(#Degradado_sin_nombre_272);}.cls-44{fill:url(#Degradado_sin_nombre_273);}.cls-45{fill:url(#Degradado_sin_nombre_275-3);}.cls-46{fill:url(#Degradado_sin_nombre_275-4);}.cls-47{fill:url(#Degradado_sin_nombre_285);}.cls-48{fill:url(#Degradado_sin_nombre_287);}.cls-49{fill:url(#Degradado_sin_nombre_287-2);}.cls-50{fill:url(#Degradado_sin_nombre_285-2);}.cls-51{fill:url(#Degradado_sin_nombre_287-3);}.cls-52{fill:url(#Degradado_sin_nombre_287-4);}.cls-53{fill:url(#Degradado_sin_nombre_285-3);}.cls-54{fill:url(#Degradado_sin_nombre_287-5);}.cls-55{fill:url(#Degradado_sin_nombre_287-6);}.cls-56{fill:url(#Degradado_sin_nombre_285-4);}.cls-57{fill:url(#Degradado_sin_nombre_287-7);}.cls-58{fill:url(#Degradado_sin_nombre_287-8);}.cls-59{fill:url(#Degradado_sin_nombre_289);}.cls-60{fill:url(#Degradado_sin_nombre_289-2);}.cls-61{fill:#ebebeb;stroke:#8a9ba7;}.cls-62{fill:#ffff7f;}.cls-63{fill-opacity:0.2;}.cls-64{fill:#b86d76;}.cls-65{fill:url(#Degradado_sin_nombre_291);}.cls-66{fill:url(#Degradado_sin_nombre_291-2);}.cls-67{fill:#35609f;}.cls-68{fill:url(#Degradado_sin_nombre_292);}.cls-69{fill:#d7d7d7;}.cls-70{fill:#39aa71;}</style><linearGradient id="Degradado_sin_nombre_261" x1="-658.12" y1="867.3" x2="-659.12" y2="867.3" gradientTransform="matrix(4.9, 0, 0, -16, 3462.45, 14149.88)" gradientUnits="userSpaceOnUse"><stop offset="0" stop-color="#727272"/><stop offset="0.15" stop-color="#a3a3a3"/><stop offset="0.25" stop-color="#d0d0d0"/><stop offset="0.52" stop-color="#878787"/><stop offset="0.69" stop-color="#787878"/><stop offset="0.8" stop-color="#717171"/><stop offset="0.92" stop-color="#6a6a6a"/><stop offset="1" stop-color="#7b7b7b"/></linearGradient><linearGradient id="Degradado_sin_nombre_261-2" x1="-640.14" y1="1177.7" x2="-641.14" y2="1177.7" gradientTransform="matrix(20.4, 0, 0, -5.3, 13304.12, 6525.19)" xlink:href="#Degradado_sin_nombre_261"/><linearGradient id="Degradado_sin_nombre_261-3" x1="-658.12" y1="867.3" x2="-659.12" y2="867.3" gradientTransform="matrix(4.9, 0, 0, -16, 3273.54, 14149.88)" xlink:href="#Degradado_sin_nombre_261"/><linearGradient id="Degradado_sin_nombre_261-4" x1="-640.14" y1="1177.7" x2="-641.14" y2="1177.7" gradientTransform="matrix(20.4, 0, 0, -5.3, 13115.21, 6525.19)" xlink:href="#Degradado_sin_nombre_261"/><linearGradient id="Degradado_sin_nombre_275" x1="-644.28" y1="725.18" x2="-645.28" y2="725.18" gradientTransform="matrix(11.8, 0, 0, -211.5, 7661.36, 153481.66)" gradientUnits="userSpaceOnUse"><stop offset="0.48" stop-color="#555"/><stop offset="1" stop-color="#636363"/></linearGradient><linearGradient id="Degradado_sin_nombre_257" x1="-639.72" y1="1260.22" x2="-640.72" y2="1260.22" gradientTransform="matrix(22, 0, 0, -4.5, 14198.95, 5882.3)" gradientUnits="userSpaceOnUse"><stop offset="0" stop-color="#707070"/><stop offset="0.15" stop-color="#a2a2a2"/><stop offset="0.25" stop-color="#cfcfcf"/><stop offset="0.52" stop-color="#858585"/><stop offset="0.69" stop-color="#767676"/><stop offset="0.8" stop-color="#6f6f6f"/><stop offset="0.92" stop-color="#696969"/><stop offset="1" stop-color="#797979"/></linearGradient><linearGradient id="Degradado_sin_nombre_265" x1="-635.51" y1="1329.05" x2="-635.51" y2="1328.05" gradientTransform="matrix(206, 0, 0, -4, 131054.73, 5442.27)" gradientUnits="userSpaceOnUse"><stop offset="0" stop-color="#bdbdbd"/><stop offset="0.15" stop-color="#fff"/><stop offset="0.25" stop-color="#fff"/><stop offset="0.52" stop-color="#dfdfdf"/><stop offset="0.69" stop-color="#c7c7c7"/><stop offset="0.8" stop-color="#bcbcbc"/><stop offset="0.92" stop-color="#b1b1b1"/><stop offset="1" stop-color="#cbcbcb"/></linearGradient><linearGradient id="Degradado_sin_nombre_265-2" x1="-656.34" y1="1002.96" x2="-657.34" y2="1002.96" gradientTransform="matrix(5.3, 0, 0, -8.5, 3669.32, 8636.5)" xlink:href="#Degradado_sin_nombre_265"/><linearGradient id="Degradado_sin_nombre_261-5" x1="-646.29" y1="1205.55" x2="-647.29" y2="1205.55" gradientTransform="matrix(9.8, 0, 0, -5, 6526.59, 6148.32)" xlink:href="#Degradado_sin_nombre_261"/><linearGradient id="Degradado_sin_nombre_265-3" x1="-637.53" y1="1944.05" x2="-637.53" y2="1943.05" gradientTransform="matrix(45, 0, 0, -2, 28876.8, 4012.17)" xlink:href="#Degradado_sin_nombre_265"/><linearGradient id="Degradado_sin_nombre_265-4" x1="-637.34" y1="1944.05" x2="-637.34" y2="1943.05" gradientTransform="matrix(48.5, 0, 0, -2, 31099.13, 4004.17)" xlink:href="#Degradado_sin_nombre_265"/><linearGradient id="Degradado_sin_nombre_264" x1="-648.76" y1="3174.05" x2="-648.76" y2="3173.05" gradientTransform="matrix(8.4, 0, 0, -1, 5637.64, 3289.12)" gradientUnits="userSpaceOnUse"><stop offset="0" stop-color="#5c5c5c"/><stop offset="0.15" stop-color="#8a8a8a"/><stop offset="0.25" stop-color="#c6c6c6"/><stop offset="0.52" stop-color="#6d6d6d"/><stop offset="0.69" stop-color="#616161"/><stop offset="0.8" stop-color="#5b5b5b"/><stop offset="0.92" stop-color="#555"/><stop offset="1" stop-color="#636363"/></linearGradient><linearGradient id="Degradado_sin_nombre_265-5" x1="-648.26" y1="1416.41" x2="-649.26" y2="1416.41" gradientTransform="matrix(8.4, 0, 0, -3.5, 5637.64, 5064.75)" xlink:href="#Degradado_sin_nombre_265"/><linearGradient id="Degradado_sin_nombre_275-2" x1="-644.28" y1="758.77" x2="-645.28" y2="758.77" gradientTransform="matrix(11.8, 0, 0, -54.4, 7796.48, 41430.39)" xlink:href="#Degradado_sin_nombre_275"/><linearGradient id="Degradado_sin_nombre_252" x1="-644.54" y1="959.55" x2="-645.54" y2="959.55" gradientTransform="matrix(11.5, 0, 0, -10, 7485.98, 9800.57)" gradientUnits="userSpaceOnUse"><stop offset="0" stop-color="#bda47f"/><stop offset="0.15" stop-color="#ffe0b3"/><stop offset="0.25" stop-color="#ffeed7"/><stop offset="0.52" stop-color="#dfc297"/><stop offset="0.69" stop-color="#c7ad86"/><stop offset="0.8" stop-color="#bca37e"/><stop offset="0.92" stop-color="#b19a77"/><stop offset="1" stop-color="#cbb189"/></linearGradient><linearGradient id="Degradado_sin_nombre_252-2" x1="-639.72" y1="1285.64" x2="-640.72" y2="1285.64" gradientTransform="matrix(22, 0, 0, -4.3, 14152.95, 5739.49)" xlink:href="#Degradado_sin_nombre_252"/><linearGradient id="Degradado_sin_nombre_255" x1="-668.59" y1="742.66" x2="-667.59" y2="742.66" gradientTransform="matrix(3.5, 0, 0, -84.5, 2389.38, 62924.3)" gradientUnits="userSpaceOnUse"><stop offset="0" stop-color="#818181"/><stop offset="0.15" stop-color="#b5b5b5"/><stop offset="0.25" stop-color="#d8d8d8"/><stop offset="0.52" stop-color="#999"/><stop offset="0.69" stop-color="#888"/><stop offset="0.8" stop-color="gray"/><stop offset="0.92" stop-color="#787878"/><stop offset="1" stop-color="#8b8b8b"/></linearGradient><linearGradient id="Degradado_sin_nombre_254" x1="-636.39" y1="770.6" x2="-636.39" y2="769.6" gradientTransform="matrix(80.6, 0, 0, -43.5, 51481.02, 33689.25)" gradientUnits="userSpaceOnUse"><stop offset="0.02" stop-color="#696969"/><stop offset="0.1" stop-color="#c2c2c2"/></linearGradient><linearGradient id="Degradado_sin_nombre_255-2" x1="-668.59" y1="743.37" x2="-667.59" y2="743.37" gradientTransform="matrix(3.5, 0, 0, -82.5, 2504.38, 61497.2)" xlink:href="#Degradado_sin_nombre_255"/><linearGradient id="Degradado_sin_nombre_256" x1="-667.59" y1="758.77" x2="-668.59" y2="758.77" gradientTransform="matrix(3.5, 0, 0, -54.4, 2452.38, 41432.39)" gradientUnits="userSpaceOnUse"><stop offset="0" stop-color="#959595"/><stop offset="0.15" stop-color="#cecece"/><stop offset="0.25" stop-color="#e4e4e4"/><stop offset="0.52" stop-color="#b1b1b1"/><stop offset="0.69" stop-color="#9d9d9d"/><stop offset="0.8" stop-color="#949494"/><stop offset="0.92" stop-color="#8b8b8b"/><stop offset="1" stop-color="#a1a1a1"/></linearGradient><linearGradient id="Degradado_sin_nombre_257-2" x1="-651.02" y1="775.05" x2="-652.02" y2="775.05" gradientTransform="matrix(7, 0, 0, -40, 4674.7, 31192.07)" xlink:href="#Degradado_sin_nombre_257"/><radialGradient id="Degradado_sin_nombre_270" cx="-749.45" cy="3172.05" r="2.5" gradientTransform="matrix(1, 0, 0, -1, 886.77, 3390.25)" gradientUnits="userSpaceOnUse"><stop offset="0" stop-color="#fff"/><stop offset="0.15" stop-color="#fff"/><stop offset="0.25" stop-color="#fff"/><stop offset="0.52" stop-color="#dfdfdf"/><stop offset="0.69" stop-color="#c7c7c7"/><stop offset="0.8" stop-color="#bcbcbc"/><stop offset="0.92" stop-color="#b1b1b1"/><stop offset="1" stop-color="#cbcbcb"/></radialGradient><radialGradient id="Degradado_sin_nombre_270-2" cx="-749.45" cy="3172.05" gradientTransform="matrix(1, 0, 0, -1, 893.77, 3390.25)" xlink:href="#Degradado_sin_nombre_270"/><linearGradient id="Degradado_sin_nombre_265-6" x1="-656.34" y1="1002.96" x2="-657.34" y2="1002.96" gradientTransform="matrix(5.3, 0, 0, -8.5, 3595.32, 8636.5)" xlink:href="#Degradado_sin_nombre_265"/><linearGradient id="Degradado_sin_nombre_261-6" x1="-646.29" y1="1205.55" x2="-647.29" y2="1205.55" gradientTransform="matrix(9.8, 0, 0, -5, 6452.59, 6148.32)" xlink:href="#Degradado_sin_nombre_261"/><linearGradient id="Degradado_sin_nombre_265-7" x1="-637.53" y1="1944.05" x2="-637.53" y2="1943.05" gradientTransform="matrix(45, 0, 0, -2, 28802.8, 4012.17)" xlink:href="#Degradado_sin_nombre_265"/><linearGradient id="Degradado_sin_nombre_265-8" x1="-637.34" y1="1944.05" x2="-637.34" y2="1943.05" gradientTransform="matrix(48.5, 0, 0, -2, 31025.13, 4004.17)" xlink:href="#Degradado_sin_nombre_265"/><linearGradient id="Degradado_sin_nombre_264-2" x1="-648.76" y1="3174.05" x2="-648.76" y2="3173.05" gradientTransform="matrix(8.4, 0, 0, -1, 5563.64, 3289.12)" xlink:href="#Degradado_sin_nombre_264"/><linearGradient id="Degradado_sin_nombre_265-9" x1="-648.26" y1="1416.41" x2="-649.26" y2="1416.41" gradientTransform="matrix(8.4, 0, 0, -3.5, 5563.64, 5064.75)" xlink:href="#Degradado_sin_nombre_265"/><linearGradient id="Degradado_sin_nombre_267" x1="-773.53" y1="3151.98" x2="-629.53" y2="3007.98" gradientTransform="matrix(1, 0, 0, -1, 894.19, 3196.73)" gradientUnits="userSpaceOnUse"><stop offset="0.03" stop-color="#fff" stop-opacity="0.5"/><stop offset="0.09" stop-color="#fff" stop-opacity="0.5"/><stop offset="0.2" stop-color="#fff" stop-opacity="0.6"/><stop offset="0.33" stop-color="#fff" stop-opacity="0.5"/><stop offset="0.37" stop-color="#fff" stop-opacity="0.5"/><stop offset="0.42" stop-color="#fff" stop-opacity="0.6"/><stop offset="0.73" stop-color="#fff" stop-opacity="0.6"/><stop offset="0.79" stop-color="#fff" stop-opacity="0.5"/><stop offset="0.84" stop-color="#fff" stop-opacity="0.5"/></linearGradient><linearGradient id="Degradado_sin_nombre_267-2" x1="-773.53" y1="3151.98" x2="-629.53" y2="3007.98" gradientTransform="matrix(1, 0, 0, -1, 789.48, 3196.73)" xlink:href="#Degradado_sin_nombre_267"/><linearGradient id="Degradado_sin_nombre_268" x1="-452.23" y1="745.77" x2="-453.23" y2="745.77" gradientTransform="matrix(0, -13.5, -3.6, 0, 2827.32, -5992.13)" gradientUnits="userSpaceOnUse"><stop offset="0" stop-color="#2c8859"/><stop offset="0.01" stop-color="#87cfa5"/><stop offset="0.02" stop-color="#3cb276"/><stop offset="0.64" stop-color="#3baf74"/><stop offset="0.99" stop-color="#39ab72"/><stop offset="1" stop-color="#287e53"/></linearGradient><radialGradient id="Degradado_sin_nombre_270-3" cx="-749.45" cy="3172.05" gradientTransform="matrix(1, 0, 0, -1, 886.77, 3433.15)" xlink:href="#Degradado_sin_nombre_270"/><radialGradient id="Degradado_sin_nombre_270-4" cx="-749.45" cy="3172.05" gradientTransform="matrix(1, 0, 0, -1, 893.77, 3433.15)" xlink:href="#Degradado_sin_nombre_270"/><radialGradient id="Degradado_sin_nombre_271" cx="-735.45" cy="3158.05" r="22.1" gradientTransform="matrix(1, 0, 0, -1, 876.41, 3397.76)" gradientUnits="userSpaceOnUse"><stop offset="0"/><stop offset="0.91"/><stop offset="0.91" stop-color="#939393"/><stop offset="0.91"/></radialGradient><linearGradient id="Degradado_sin_nombre_272" x1="-741.54" y1="3174.13" x2="-751.54" y2="3163.13" gradientTransform="matrix(1, 0, 0, -1, 886.85, 3408.26)" gradientUnits="userSpaceOnUse"><stop offset="0" stop-color="#bdbdbd"/><stop offset="0.15" stop-color="#fff"/><stop offset="0.52" stop-color="#dfdfdf"/><stop offset="0.69" stop-color="#c7c7c7"/><stop offset="0.8" stop-color="#bcbcbc"/><stop offset="0.92" stop-color="#b1b1b1"/><stop offset="1" stop-color="#cbcbcb"/></linearGradient><radialGradient id="Degradado_sin_nombre_273" cx="-749.45" cy="3172.05" r="3.3" gradientTransform="matrix(1, 0, 0, -1, 889.65, 3411.08)" gradientUnits="userSpaceOnUse"><stop offset="0" stop-color="#959595"/><stop offset="0.15" stop-color="#545454"/><stop offset="0.52" stop-color="#292929"/><stop offset="0.69" stop-color="#232323"/><stop offset="0.8" stop-color="#202020"/><stop offset="0.92" stop-color="#1e1e1e"/><stop offset="1" stop-color="#242424"/></radialGradient><linearGradient id="Degradado_sin_nombre_275-3" x1="-383.43" y1="717.44" x2="-384.43" y2="717.44" gradientTransform="matrix(0, -9.8, -29.8, 0, 21416.89, -3756.61)" xlink:href="#Degradado_sin_nombre_275"/><linearGradient id="Degradado_sin_nombre_275-4" x1="-622.73" y1="676.28" x2="-623.73" y2="676.28" gradientTransform="matrix(-9.9, 0, 0, 66, -6140.95, -44594.2)" xlink:href="#Degradado_sin_nombre_275"/><linearGradient id="Degradado_sin_nombre_285" x1="-231.67" y1="722.52" x2="-231.67" y2="721.52" gradientTransform="matrix(0, -6.1, -13.7, 0, 9920.68, -1410.08)" gradientUnits="userSpaceOnUse"><stop offset="0" stop-color="#6b6b6b"/><stop offset="0.01" stop-color="#b4b4b4"/><stop offset="0.02" stop-color="#8d8d8d"/><stop offset="0.64" stop-color="#8a8a8a"/><stop offset="0.99" stop-color="#878787"/><stop offset="1" stop-color="#636363"/></linearGradient><radialGradient id="Degradado_sin_nombre_287" cx="1180.63" cy="-938.65" r="2.2" gradientTransform="matrix(-0.71, -0.71, -0.71, 0.71, 197.5, 1507.22)" gradientUnits="userSpaceOnUse"><stop offset="0" stop-color="#313131"/><stop offset="0.15" stop-color="#606060"/><stop offset="0.25" stop-color="#b9b9b9"/><stop offset="0.52" stop-color="#3b3b3b"/><stop offset="0.69" stop-color="#343434"/><stop offset="0.8" stop-color="#303030"/><stop offset="0.92" stop-color="#2d2d2d"/><stop offset="1" stop-color="#353535"/></radialGradient><radialGradient id="Degradado_sin_nombre_287-2" cx="1180.63" cy="-938.65" r="2.2" gradientTransform="matrix(-0.71, -0.71, -0.71, 0.71, 204.2, 1507.22)" xlink:href="#Degradado_sin_nombre_287"/><linearGradient id="Degradado_sin_nombre_285-2" x1="-231.67" y1="722.52" x2="-231.67" y2="721.52" gradientTransform="matrix(0, -6.1, -13.7, 0, 9920.68, -1404.33)" xlink:href="#Degradado_sin_nombre_285"/><radialGradient id="Degradado_sin_nombre_287-3" cx="1180.63" cy="-938.65" r="2.2" gradientTransform="matrix(-0.71, -0.71, -0.71, 0.71, 197.5, 1512.97)" xlink:href="#Degradado_sin_nombre_287"/><radialGradient id="Degradado_sin_nombre_287-4" cx="1180.63" cy="-938.65" r="2.2" gradientTransform="matrix(-0.71, -0.71, -0.71, 0.71, 204.2, 1512.97)" xlink:href="#Degradado_sin_nombre_287"/><linearGradient id="Degradado_sin_nombre_285-3" x1="-231.67" y1="722.52" x2="-231.67" y2="721.52" gradientTransform="matrix(0, -6.1, -13.7, 0, 9944.56, -1410.15)" xlink:href="#Degradado_sin_nombre_285"/><radialGradient id="Degradado_sin_nombre_287-5" cx="1180.63" cy="-938.65" r="2.2" gradientTransform="matrix(-0.71, -0.71, -0.71, 0.71, 221.38, 1507.15)" xlink:href="#Degradado_sin_nombre_287"/><radialGradient id="Degradado_sin_nombre_287-6" cx="1180.63" cy="-938.65" r="2.2" gradientTransform="matrix(-0.71, -0.71, -0.71, 0.71, 228.08, 1507.15)" xlink:href="#Degradado_sin_nombre_287"/><linearGradient id="Degradado_sin_nombre_285-4" x1="-231.67" y1="722.52" x2="-231.67" y2="721.52" gradientTransform="matrix(0, -6.1, -13.7, 0, 9944.56, -1404.4)" xlink:href="#Degradado_sin_nombre_285"/><radialGradient id="Degradado_sin_nombre_287-7" cx="1180.63" cy="-938.65" r="2.2" gradientTransform="matrix(-0.71, -0.71, -0.71, 0.71, 221.38, 1512.9)" xlink:href="#Degradado_sin_nombre_287"/><radialGradient id="Degradado_sin_nombre_287-8" cx="1180.63" cy="-938.65" r="2.2" gradientTransform="matrix(-0.71, -0.71, -0.71, 0.71, 228.08, 1512.9)" xlink:href="#Degradado_sin_nombre_287"/><linearGradient id="Degradado_sin_nombre_289" x1="-632.04" y1="669.31" x2="-633.04" y2="669.31" gradientTransform="matrix(-48.1, 0, 0, 55.6, -30401.04, -37150.5)" gradientUnits="userSpaceOnUse"><stop offset="0.02" stop-color="#7e7e7e"/><stop offset="0.05" stop-color="#9b9b9b"/><stop offset="0.16" stop-color="#7e7e7e"/><stop offset="0.53" stop-color="#7e7e7e"/><stop offset="0.58" stop-color="#7e7e7e"/><stop offset="1" stop-color="#868686"/></linearGradient><linearGradient id="Degradado_sin_nombre_289-2" x1="-636.86" y1="757.79" x2="-637.86" y2="757.79" gradientTransform="matrix(48.1, 0, 0, -55.6, 30685.96, 42196.26)" xlink:href="#Degradado_sin_nombre_289"/><linearGradient id="Degradado_sin_nombre_291" x1="-744.39" y1="3172.93" x2="-752.39" y2="3168.93" gradientTransform="matrix(1, 0, 0, -1, 785.86, 3248.36)" gradientUnits="userSpaceOnUse"><stop offset="0" stop-color="#b86d76"/><stop offset="0.15" stop-color="#f19aa3"/><stop offset="0.25" stop-color="#f7ccd0"/><stop offset="0.44" stop-color="#d27d87"/><stop offset="0.6" stop-color="#bb6f78"/><stop offset="0.8" stop-color="#9e5d64"/><stop offset="0.97" stop-color="#90545b"/></linearGradient><linearGradient id="Degradado_sin_nombre_291-2" x1="-746.69" y1="3173.45" x2="-751.69" y2="3170.45" gradientTransform="matrix(1, 0, 0, -1, 773.84, 3241.61)" xlink:href="#Degradado_sin_nombre_291"/><linearGradient id="Degradado_sin_nombre_292" x1="-746.69" y1="3173.45" x2="-751.69" y2="3170.45" gradientTransform="matrix(1, 0, 0, -1, 762.7, 3241.63)" gradientUnits="userSpaceOnUse"><stop offset="0" stop-color="#3865a6"/><stop offset="0.15" stop-color="#6490dc"/><stop offset="0.25" stop-color="#bac8eb"/><stop offset="0.44" stop-color="#4174be"/><stop offset="0.6" stop-color="#3966a9"/><stop offset="0.8" stop-color="#2f558e"/><stop offset="0.97" stop-color="#2a4d82"/></linearGradient></defs><title>T800</title><g id="Capa_2" data-name="Capa 2"><g id="Capa_1-2" data-name="Capa 1"><g id="group421"><path id="shape422" class="cls-1" d="M36.28,213.07h208.5a.67.67,0,0,1,.6.7V265a.67.67,0,0,1-.6.7H36.28a.67.67,0,0,1-.6-.7v-51.2A.67.67,0,0,1,36.28,213.07Z"/><g id="group423"><path id="shape424" class="cls-2" d="M232.74,265.08h4.9v16h-4.9Z"/><path id="shape425" class="cls-3" d="M225.84,280.72h18.6c.5,0,.9.5.9,1.2v2.8c0,.7-.4,1.3-.9,1.3h-18.6c-.5,0-.9-.6-.9-1.3v-2.8C224.94,281.22,225.34,280.72,225.84,280.72Z"/></g><g id="group426"><path id="shape427" class="cls-4" d="M43.83,265.08h4.9v16h-4.9Z"/><path id="shape428" class="cls-5" d="M36.93,280.72h18.6c.5,0,.9.5.9,1.2v2.8c0,.7-.4,1.3-.9,1.3H36.93c-.5,0-.9-.6-.9-1.3v-2.8C36,281.22,36.43,280.72,36.93,280.72Z"/></g><path id="shape429" class="cls-6" d="M47.05.07h11.7s.1,1.1.1,2.7v205.8c0,1.6-.1,3-.1,3H47.05V.07Z"/><g id="group430"><path id="shape431" class="cls-7" d="M103.15,209.07H125c.1,0,.1,0,.1.1v4.3c0,.1,0,.1-.1.1h-21.8c-.1,0-.1,0-.1-.1v-4.3C103.05,209.07,103.05,209.07,103.15,209.07Z"/><path id="shape432" class="cls-8" d="M36.63,126.07h204.8c.3,0,.6,0,.6.1V130c0,.1-.3.1-.6.1H36.63c-.3,0-.6,0-.6-.1v-3.8C36,126.07,36.33,126.07,36.63,126.07Z"/><g id="group433"><path id="shape434" class="cls-9" d="M185.43,107.07h5.2a.1.1,0,0,1,.1.1v8.3l-.1.1h-5.2v-8.5Z"/><path id="shape435" class="cls-10" d="M183.18,118.07h9.7a.1.1,0,0,1,.1.1V123a.1.1,0,0,1-.1.1h-9.7v-5Z"/><path id="shape436" class="cls-11" d="M165.65,124.07h44.9v2h-45v-2Z"/><path id="shape437" class="cls-12" d="M158.25,122.07h59.8v2h-60v-2Z"/><path id="shape438" class="cls-13" d="M163.9,116.07h48.4v2H163.8v-2Z"/><path id="shape439" class="cls-14" d="M183.86,115.07h8.4v1h-8.4v-1Z"/><path id="shape440" class="cls-15" d="M183.86,105.57h8.4v3.5h-8.4v-3.5Z"/></g><path id="shape441" class="cls-16" d="M182.17,126.07h11.7a2.44,2.44,0,0,1,.1.7v52.9a3.78,3.78,0,0,1-.1.8h-11.7v-54.4Z"/><path id="shape442" class="cls-17" d="M62.3,200.07H73.8v10H62.3v-10Z"/><path id="shape443" class="cls-18" d="M57.15,209.07H79c.1,0,.1,0,.1.1v4.1c0,.1,0,.1-.1.1H57.15c-.1,0-.1,0-.1-.1v-4.1C57.05,209.07,57.05,209.07,57.15,209.07Z"/><path id="shape444" class="cls-19" d="M49.3,127.07h3.5v84.5H49.3v-84.5Z"/><path id="shape445" class="cls-20" d="M148,168.07h80.2c.1,0,.2.2.2.5V211c0,.3-.1.6-.2.6H148c-.1,0-.2-.3-.2-.6v-42.4C147.75,168.27,147.85,168.07,148,168.07Z"/><path id="shape446" class="cls-21" d="M164.3,128.07h3.5v82.5h-3.5v-82.5Z"/><path id="shape447" class="cls-22" d="M112.3,128.07h3.5v54.4h-3.5v-54.4Z"/><path id="shape448" class="cls-23" d="M110.55,170.07h7v40h-7v-40Z"/><g id="group449"><path id="shape450" class="cls-24" d="M135.32,217.9a1.75,1.75,0,0,1,1.7-1.7,1.77,1.77,0,0,1,1.8,1.7,1.79,1.79,0,0,1-1.8,1.8A1.77,1.77,0,0,1,135.32,217.9Z"/><path id="shape451" class="cls-25" d="M142.32,217.9a1.75,1.75,0,0,1,1.7-1.7,1.77,1.77,0,0,1,1.8,1.7,1.79,1.79,0,0,1-1.8,1.8A1.77,1.77,0,0,1,142.32,217.9Z"/></g><g id="group452"><path id="shape453" class="cls-26" d="M111.43,107.07h5.2a.1.1,0,0,1,.1.1v8.3l-.1.1h-5.2v-8.5Z"/><path id="shape454" class="cls-27" d="M109.18,118.07h9.7a.1.1,0,0,1,.1.1V123a.1.1,0,0,1-.1.1h-9.7v-5Z"/><path id="shape455" class="cls-28" d="M91.65,124.07h44.9v2h-45v-2Z"/><path id="shape456" class="cls-12" d="M84.25,122.07h59.8v2h-60v-2Z"/><path id="shape457" class="cls-29" d="M89.9,116.07h48.4v2H89.8v-2Z"/><path id="shape458" class="cls-30" d="M109.86,115.07h8.4v1h-8.4v-1Z"/><path id="shape459" class="cls-31" d="M109.86,105.57h8.4v3.5h-8.4v-3.5Z"/></g></g><g id="group460"><path id="shape461" class="cls-32" d="M142.74,22.68h100V211h-100Z"/><path id="shape462" class="cls-33" d="M38,22.68H138V211H38Z"/><path id="shape463" class="cls-34" d="M141,20.82v191.1"/><path id="shape464" class="cls-35" d="M35,19.82h6v6H35Z"/><path id="shape465" class="cls-35" d="M35,207.82h6v6H35Z"/><path id="shape466" class="cls-35" d="M135,207.82h6v6h-6Z"/><path id="shape467" class="cls-35" d="M139.75,19.82h6v6h-6Z"/><path id="shape468" class="cls-35" d="M239.75,19.82h6v6h-6Z"/><path id="shape469" class="cls-35" d="M139.74,207.82h6v6h-6Z"/><path id="shape470" class="cls-35" d="M239.74,207.82h6v6h-6Z"/><path id="shape471" class="cls-35" d="M135,19.82h6v6h-6Z"/><g id="group472"><path id="shape473" class="cls-36" d="M140.74,125.45v-17.3c0-.6.2-1,.5-1h2.6c.3,0,.5.4.5,1v17.3c0,.6-.2,1-.5,1h-2.6C140.94,126.45,140.74,126.05,140.74,125.45Z"/><path id="shape474" class="cls-37" d="M140.74,125v-10.5c0-.8.2-1.5.5-1.5h2.6c.3,0,.5.7.5,1.5V125c0,.8-.2,1.5-.5,1.5h-2.6C140.94,126.45,140.74,125.75,140.74,125Z"/></g></g><g id="group475"><path id="shape476" class="cls-38" d="M135.32,260.8a1.75,1.75,0,0,1,1.7-1.7,1.77,1.77,0,0,1,1.8,1.7,1.79,1.79,0,0,1-1.8,1.8A1.77,1.77,0,0,1,135.32,260.8Z"/><path id="shape477" class="cls-39" d="M142.32,260.8a1.75,1.75,0,0,1,1.7-1.7,1.77,1.77,0,0,1,1.8,1.7,1.79,1.79,0,0,1-1.8,1.8A1.77,1.77,0,0,1,142.32,260.8Z"/></g><g id="group478"><path id="shape479" class="cls-40" d="M125,239.41a15.6,15.6,0,1,1,15.6,15.6A15.64,15.64,0,0,1,125,239.41Z"/><path id="shape480" class="cls-41" d="M127.61,239.37a13,13,0,1,1,12.9,13A13,13,0,0,1,127.61,239.37Z"/><path id="shape481" class="cls-42" d="M132.56,239.35a8,8,0,1,1,8,8.1A8,8,0,0,1,132.56,239.35Z"/><path id="shape482" class="cls-43" d="M135.4,239.41a5.15,5.15,0,1,1,5.1,5.1A5.14,5.14,0,0,1,135.4,239.41Z"/><path id="shape483" class="cls-44" d="M138.2,239.43a2.35,2.35,0,0,1,2.3-2.4,2.43,2.43,0,0,1,2.4,2.4,2.35,2.35,0,0,1-2.4,2.3A2.26,2.26,0,0,1,138.2,239.43Z"/></g><path id="shape484" class="cls-45" d="M22.2,10.8V1.1a1,1,0,0,1,.4-.1H51.5a1.21,1.21,0,0,1,.5.1v9.7H22.2Z"/><path id="shape485" class="cls-46" d="M34,73.1H24.2c-.1,0-.1-.3-.1-.8V8c0-.5,0-.9.1-.9H34v66Z"/><g id="group486"><g id="group487"><path id="shape488" class="cls-47" d="M22.19,5.77V.47a.43.43,0,0,1,.4-.4h12.9a.43.43,0,0,1,.4.4v5.3a.43.43,0,0,1-.4.4H22.59A.43.43,0,0,1,22.19,5.77Z"/><path id="shape489" class="cls-48" d="M26.76,4.31a1.56,1.56,0,0,1-2.13,0,1.59,1.59,0,0,1-.08-2.21,1.61,1.61,0,0,1,2.28,0A1.59,1.59,0,0,1,26.76,4.31Z"/><path id="shape490" class="cls-49" d="M33.46,4.31a1.56,1.56,0,0,1-2.13,0,1.59,1.59,0,0,1-.08-2.21,1.61,1.61,0,0,1,2.28,0A1.59,1.59,0,0,1,33.46,4.31Z"/></g><g id="group491"><path id="shape492" class="cls-50" d="M22.19,11.52V6.22a.43.43,0,0,1,.4-.4h12.9a.43.43,0,0,1,.4.4v5.3a.43.43,0,0,1-.4.4H22.59A.43.43,0,0,1,22.19,11.52Z"/><path id="shape493" class="cls-51" d="M26.76,10.06a1.56,1.56,0,0,1-2.13,0,1.59,1.59,0,0,1-.08-2.21,1.61,1.61,0,0,1,2.28,0A1.59,1.59,0,0,1,26.76,10.06Z"/><path id="shape494" class="cls-52" d="M33.46,10.06a1.56,1.56,0,0,1-2.13,0,1.59,1.59,0,0,1-.08-2.21,1.61,1.61,0,0,1,2.28,0A1.59,1.59,0,0,1,33.46,10.06Z"/></g></g><g id="group495"><g id="group496"><path id="shape497" class="cls-53" d="M46.07,5.7V.4a.43.43,0,0,1,.4-.4h12.9a.43.43,0,0,1,.4.4V5.7a.43.43,0,0,1-.4.4H46.47A.43.43,0,0,1,46.07,5.7Z"/><path id="shape498" class="cls-54" d="M50.63,4.24a1.56,1.56,0,0,1-2.13,0A1.59,1.59,0,0,1,48.43,2a1.61,1.61,0,0,1,2.28,0A1.59,1.59,0,0,1,50.63,4.24Z"/><path id="shape499" class="cls-55" d="M57.33,4.24a1.56,1.56,0,0,1-2.13,0A1.59,1.59,0,0,1,55.13,2a1.61,1.61,0,0,1,2.28,0A1.59,1.59,0,0,1,57.33,4.24Z"/></g><g id="group500"><path id="shape501" class="cls-56" d="M46.07,11.45V6.15a.43.43,0,0,1,.4-.4h12.9a.43.43,0,0,1,.4.4v5.3a.43.43,0,0,1-.4.4H46.47A.43.43,0,0,1,46.07,11.45Z"/><path id="shape502" class="cls-57" d="M50.63,10a1.56,1.56,0,0,1-2.13,0,1.59,1.59,0,0,1-.07-2.21,1.61,1.61,0,0,1,2.28,0A1.59,1.59,0,0,1,50.63,10Z"/><path id="shape503" class="cls-58" d="M57.33,10a1.56,1.56,0,0,1-2.13,0,1.59,1.59,0,0,1-.07-2.21,1.61,1.61,0,0,1,2.28,0A1.59,1.59,0,0,1,57.33,10Z"/></g></g><g id="group504"><path id="shape505" class="cls-59" d="M46.7,90.68H1.4c-.7,0-1.4-1.1-1.4-2.4V37.58c0-1.4.7-2.5,1.4-2.5H46.7c.8,0,1.4,1.1,1.4,2.5v50.7C48.1,89.58,47.5,90.68,46.7,90.68Z"/><path id="shape506" class="cls-60" d="M6.22,35.08h45.3c.7,0,1.4,1.1,1.4,2.4v50.7c0,1.4-.7,2.5-1.4,2.5H6.22c-.8,0-1.4-1.1-1.4-2.5V37.48C4.82,36.18,5.42,35.08,6.22,35.08Z"/><path id="shape507" class="cls-61" d="M10.2,41.78H41.5A1.22,1.22,0,0,1,42.7,43v16.8A1.16,1.16,0,0,1,41.5,61H10.2A1.16,1.16,0,0,1,9,59.78V43A1.22,1.22,0,0,1,10.2,41.78Z"/><g id="group508"><path id="shape509" class="cls-62" d="M31.79,77.2a6,6,0,0,1,6-6,5.93,5.93,0,0,1,5.9,6,5.85,5.85,0,0,1-5.9,5.9A5.93,5.93,0,0,1,31.79,77.2Z"/><g id="group510"><path class="cls-63" d="M35.49,77.46a4,4,0,1,1,4,4A4,4,0,0,1,35.49,77.46Z"/><g id="group511"><path id="shape512" class="cls-64" d="M33.47,77.45a4.05,4.05,0,1,1,4,4A4,4,0,0,1,33.47,77.45Z"/></g><g id="group513"><path id="shape514" class="cls-65" d="M34.41,77.41a3.1,3.1,0,1,1,3.1,3.1A3.12,3.12,0,0,1,34.41,77.41Z"/></g></g></g><g id="group515"><g id="group516"><path class="cls-63" d="M23.74,69.71a2.85,2.85,0,0,1,5.7,0,2.85,2.85,0,0,1-5.7,0Z"/><g id="group517"><path id="shape518" class="cls-64" d="M21.72,69.7a2.85,2.85,0,0,1,5.7,0,2.85,2.85,0,0,1-5.7,0Z"/></g><g id="group519"><path id="shape520" class="cls-66" d="M22.39,69.66a2.2,2.2,0,0,1,2.2-2.1,2.11,2.11,0,0,1,2.1,2.1,2.14,2.14,0,0,1-2.1,2.2A2.22,2.22,0,0,1,22.39,69.66Z"/></g></g><g id="group521"><g id="group522"><path class="cls-63" d="M12.59,69.72a2.85,2.85,0,0,1,5.7,0,2.85,2.85,0,0,1-5.7,0Z"/><path id="shape523" class="cls-67" d="M10.58,69.72a2.85,2.85,0,0,1,5.7,0,2.85,2.85,0,0,1-5.7,0Z"/></g><g id="group524"><path class="cls-63" d="M13.25,69.78a2.22,2.22,0,0,1,2.2-2.2,2.14,2.14,0,0,1,2.1,2.2,2.11,2.11,0,0,1-2.1,2.1A2.2,2.2,0,0,1,13.25,69.78Z"/><path id="shape525" class="cls-68" d="M11.25,69.68a2.2,2.2,0,0,1,2.2-2.1,2.11,2.11,0,0,1,2.1,2.1,2.14,2.14,0,0,1-2.1,2.2A2.22,2.22,0,0,1,11.25,69.68Z"/></g></g><g id="group526"><g id="group527"><path class="cls-63" d="M23.74,78.12a2.85,2.85,0,0,1,5.7,0,2.85,2.85,0,0,1-5.7,0Z"/><path id="shape528" class="cls-69" d="M21.73,78.12a2.85,2.85,0,0,1,5.7,0,2.85,2.85,0,0,1-5.7,0Z"/></g><g id="group529"><path class="cls-63" d="M24.4,78.18A2.22,2.22,0,0,1,26.6,76a2.14,2.14,0,0,1,2.1,2.2,2.11,2.11,0,0,1-2.1,2.1A2.2,2.2,0,0,1,24.4,78.18Z"/><path id="shape530" class="cls-12" d="M22.4,78.08A2.2,2.2,0,0,1,24.6,76a2.11,2.11,0,0,1,2.1,2.1,2.14,2.14,0,0,1-2.1,2.2A2.22,2.22,0,0,1,22.4,78.08Z"/></g></g><g id="group531"><g id="group532"><path class="cls-63" d="M12.59,78.12a2.85,2.85,0,0,1,5.7,0,2.85,2.85,0,0,1-5.7,0Z"/><path id="shape533" class="cls-69" d="M10.58,78.12a2.85,2.85,0,0,1,5.7,0,2.85,2.85,0,0,1-5.7,0Z"/></g><g id="group534"><path class="cls-63" d="M13.25,78.18a2.22,2.22,0,0,1,2.2-2.2,2.14,2.14,0,0,1,2.1,2.2,2.11,2.11,0,0,1-2.1,2.1A2.2,2.2,0,0,1,13.25,78.18Z"/><path id="shape535" class="cls-41" d="M11.25,78.08a2.2,2.2,0,0,1,2.2-2.1,2.11,2.11,0,0,1,2.1,2.1,2.14,2.14,0,0,1-2.1,2.2A2.22,2.22,0,0,1,11.25,78.08Z"/></g></g></g><path id="shape536" class="cls-70" d="M12.8,35.84h26c2.2,0,3.9.2,3.9.4v2.1c0,.2-1.7.4-3.9.4h-26c-2.1,0-3.8-.2-3.8-.4v-2.1C9,36,10.7,35.84,12.8,35.84Z"/><path id="shape537" class="cls-70" d="M12.8,86.33h26c2.2,0,3.9.2,3.9.4v2.1c0,.2-1.7.4-3.9.4h-26c-2.1,0-3.8-.2-3.8-.4v-2.1C9,86.53,10.7,86.33,12.8,86.33Z"/></g></g></g></g></svg>